<mxfile host="app.diagrams.net" agent="Mozilla/5.0 (Windows NT 10.0; Win64; x64) AppleWebKit/537.36 (KHTML, like Gecko) Chrome/133.0.0.0 Safari/537.36" version="26.0.16">
  <diagram name="PÃ¡gina-1" id="abd6L9xATYACd5n6IBX-">
    <mxGraphModel dx="2298" dy="1018" grid="0" gridSize="10" guides="1" tooltips="1" connect="1" arrows="1" fold="1" page="1" pageScale="1" pageWidth="827" pageHeight="1169" math="0" shadow="0">
      <root>
        <mxCell id="0" />
        <mxCell id="1" parent="0" />
        <mxCell id="qlSjrMp9siIo2HYoJRVr-30" value="" style="group" vertex="1" connectable="0" parent="1">
          <mxGeometry x="28" width="1584" height="1167" as="geometry" />
        </mxCell>
        <mxCell id="L7zxtCX0zksGG6J7b8uJ-1" value="" style="verticalLabelPosition=bottom;align=center;dashed=0;html=1;verticalAlign=top;shape=mxgraph.pid.fittings.injector;" parent="qlSjrMp9siIo2HYoJRVr-30" vertex="1">
          <mxGeometry x="182.4390243902439" y="546.386925795053" width="279.02439024390236" height="105.15371024734982" as="geometry" />
        </mxCell>
        <mxCell id="L7zxtCX0zksGG6J7b8uJ-2" value="" style="verticalLabelPosition=bottom;outlineConnect=0;align=center;dashed=0;html=1;verticalAlign=top;shape=mxgraph.pid2misc.conveyor;rotation=-90;" parent="qlSjrMp9siIo2HYoJRVr-30" vertex="1">
          <mxGeometry x="1148.292682926829" y="824.7349823321554" width="167.41463414634148" height="28.86572438162544" as="geometry" />
        </mxCell>
        <mxCell id="L7zxtCX0zksGG6J7b8uJ-3" value="" style="shape=mxgraph.pid.vessels.pressurized_vessel;html=1;pointerEvents=1;align=center;verticalLabelPosition=bottom;verticalAlign=top;dashed=0;" parent="qlSjrMp9siIo2HYoJRVr-30" vertex="1">
          <mxGeometry x="75.1219512195122" y="379.37809187279146" width="96.58536585365854" height="140.20494699646645" as="geometry" />
        </mxCell>
        <mxCell id="L7zxtCX0zksGG6J7b8uJ-5" value="&lt;table cellpadding=&quot;4&quot; cellspacing=&quot;0&quot; border=&quot;0&quot; style=&quot;font-size:1em;width:100%;height:100%;&quot;&gt;&lt;tbody&gt;&lt;tr&gt;&lt;td&gt;TIC&lt;/td&gt;&lt;/tr&gt;&lt;tr&gt;&lt;td&gt;&lt;br&gt;&lt;/td&gt;&lt;/tr&gt;&lt;/tbody&gt;&lt;/table&gt; " style="html=1;outlineConnect=0;align=center;dashed=0;aspect=fixed;shape=mxgraph.pid2inst.sharedCont;mounting=room" parent="qlSjrMp9siIo2HYoJRVr-30" vertex="1">
          <mxGeometry x="192" y="477.16999999999996" width="41.41" height="41.41" as="geometry" />
        </mxCell>
        <mxCell id="L7zxtCX0zksGG6J7b8uJ-6" value="&lt;table cellpadding=&quot;4&quot; cellspacing=&quot;0&quot; border=&quot;0&quot; style=&quot;font-size:1em;width:100%;height:100%;&quot;&gt;&lt;tbody&gt;&lt;tr&gt;&lt;td&gt;PIC&lt;/td&gt;&lt;/tr&gt;&lt;tr&gt;&lt;td&gt;&lt;br&gt;&lt;/td&gt;&lt;/tr&gt;&lt;/tbody&gt;&lt;/table&gt; " style="html=1;outlineConnect=0;align=center;dashed=0;aspect=fixed;shape=mxgraph.pid2inst.sharedCont;mounting=room" parent="qlSjrMp9siIo2HYoJRVr-30" vertex="1">
          <mxGeometry x="268" y="477.16999999999996" width="42.41" height="42.41" as="geometry" />
        </mxCell>
        <mxCell id="L7zxtCX0zksGG6J7b8uJ-7" value="&lt;table cellpadding=&quot;4&quot; cellspacing=&quot;0&quot; border=&quot;0&quot; style=&quot;font-size:1em;width:100%;height:100%;&quot;&gt;&lt;tbody&gt;&lt;tr&gt;&lt;td&gt;LIT&lt;/td&gt;&lt;/tr&gt;&lt;tr&gt;&lt;td&gt;&lt;br&gt;&lt;/td&gt;&lt;/tr&gt;&lt;/tbody&gt;&lt;/table&gt; " style="html=1;outlineConnect=0;align=center;dashed=0;aspect=fixed;shape=mxgraph.pid2inst.discInst;mounting=field" parent="qlSjrMp9siIo2HYoJRVr-30" vertex="1">
          <mxGeometry x="3" y="406" width="38.63" height="38.63" as="geometry" />
        </mxCell>
        <mxCell id="L7zxtCX0zksGG6J7b8uJ-9" value="&lt;table cellpadding=&quot;4&quot; cellspacing=&quot;0&quot; border=&quot;0&quot; style=&quot;font-size:1em;width:100%;height:100%;&quot;&gt;&lt;tbody&gt;&lt;tr&gt;&lt;td&gt;FIT&lt;/td&gt;&lt;/tr&gt;&lt;tr&gt;&lt;td&gt;&lt;br&gt;&lt;/td&gt;&lt;/tr&gt;&lt;/tbody&gt;&lt;/table&gt; " style="html=1;outlineConnect=0;align=center;dashed=0;aspect=fixed;shape=mxgraph.pid2inst.discInst;mounting=field" parent="qlSjrMp9siIo2HYoJRVr-30" vertex="1">
          <mxGeometry x="-2.52" y="453.78000000000003" width="44.15" height="44.15" as="geometry" />
        </mxCell>
        <mxCell id="L7zxtCX0zksGG6J7b8uJ-10" value="" style="verticalLabelPosition=bottom;align=center;html=1;verticalAlign=top;pointerEvents=1;dashed=0;shape=mxgraph.pid2valves.valve;valveType=gate" parent="qlSjrMp9siIo2HYoJRVr-30" vertex="1">
          <mxGeometry x="101.95121951219512" y="559.7888692579505" width="42.926829268292686" height="24.742049469964666" as="geometry" />
        </mxCell>
        <mxCell id="L7zxtCX0zksGG6J7b8uJ-11" value="" style="endArrow=none;dashed=1;html=1;rounded=0;entryX=-0.004;entryY=0.706;entryDx=0;entryDy=0;entryPerimeter=0;" parent="qlSjrMp9siIo2HYoJRVr-30" target="L7zxtCX0zksGG6J7b8uJ-3" edge="1">
          <mxGeometry width="50" height="50" relative="1" as="geometry">
            <mxPoint x="42.926829268292686" y="477.9999010600707" as="sourcePoint" />
            <mxPoint x="64.39024390243901" y="477.9999010600707" as="targetPoint" />
          </mxGeometry>
        </mxCell>
        <mxCell id="L7zxtCX0zksGG6J7b8uJ-12" value="" style="endArrow=none;dashed=1;html=1;rounded=0;entryX=-0.004;entryY=0.706;entryDx=0;entryDy=0;entryPerimeter=0;" parent="qlSjrMp9siIo2HYoJRVr-30" edge="1">
          <mxGeometry width="50" height="50" relative="1" as="geometry">
            <mxPoint x="42.926829268292686" y="428.5158021201414" as="sourcePoint" />
            <mxPoint x="75.1219512195122" y="428.8621908127208" as="targetPoint" />
          </mxGeometry>
        </mxCell>
        <mxCell id="L7zxtCX0zksGG6J7b8uJ-15" style="edgeStyle=orthogonalEdgeStyle;rounded=0;orthogonalLoop=1;jettySize=auto;html=1;entryX=0.519;entryY=0.36;entryDx=0;entryDy=0;entryPerimeter=0;" parent="qlSjrMp9siIo2HYoJRVr-30" source="L7zxtCX0zksGG6J7b8uJ-3" target="L7zxtCX0zksGG6J7b8uJ-10" edge="1">
          <mxGeometry relative="1" as="geometry" />
        </mxCell>
        <mxCell id="L7zxtCX0zksGG6J7b8uJ-17" style="edgeStyle=orthogonalEdgeStyle;rounded=0;orthogonalLoop=1;jettySize=auto;html=1;entryX=0;entryY=0.5;entryDx=0;entryDy=0;entryPerimeter=0;" parent="qlSjrMp9siIo2HYoJRVr-30" source="L7zxtCX0zksGG6J7b8uJ-10" target="L7zxtCX0zksGG6J7b8uJ-1" edge="1">
          <mxGeometry relative="1" as="geometry" />
        </mxCell>
        <mxCell id="L7zxtCX0zksGG6J7b8uJ-18" value="" style="endArrow=none;dashed=1;html=1;rounded=0;" parent="qlSjrMp9siIo2HYoJRVr-30" edge="1">
          <mxGeometry width="50" height="50" relative="1" as="geometry">
            <mxPoint x="214.18341463414637" y="519.583038869258" as="sourcePoint" />
            <mxPoint x="214.63414634146343" y="544.3250883392227" as="targetPoint" />
          </mxGeometry>
        </mxCell>
        <mxCell id="L7zxtCX0zksGG6J7b8uJ-20" value="" style="endArrow=none;dashed=1;html=1;rounded=0;entryX=0.385;entryY=-0.02;entryDx=0;entryDy=0;entryPerimeter=0;" parent="qlSjrMp9siIo2HYoJRVr-30" target="L7zxtCX0zksGG6J7b8uJ-1" edge="1">
          <mxGeometry width="50" height="50" relative="1" as="geometry">
            <mxPoint x="289.5307317073171" y="519.583038869258" as="sourcePoint" />
            <mxPoint x="289.9814634146341" y="544.3250883392227" as="targetPoint" />
          </mxGeometry>
        </mxCell>
        <mxCell id="L7zxtCX0zksGG6J7b8uJ-21" value="M" style="verticalLabelPosition=middle;shadow=0;dashed=0;align=center;html=1;verticalAlign=middle;strokeWidth=1;shape=ellipse;fontSize=32;perimeter=ellipsePerimeter;" parent="qlSjrMp9siIo2HYoJRVr-30" vertex="1">
          <mxGeometry x="440" y="437.1095406360424" width="75.1219512195122" height="57.73144876325088" as="geometry" />
        </mxCell>
        <mxCell id="L7zxtCX0zksGG6J7b8uJ-22" value="&lt;table cellpadding=&quot;4&quot; cellspacing=&quot;0&quot; border=&quot;0&quot; style=&quot;font-size:1em;width:100%;height:100%;&quot;&gt;&lt;tbody&gt;&lt;tr&gt;&lt;td&gt;XT&lt;/td&gt;&lt;/tr&gt;&lt;tr&gt;&lt;td&gt;&lt;br&gt;&lt;/td&gt;&lt;/tr&gt;&lt;/tbody&gt;&lt;/table&gt; " style="html=1;outlineConnect=0;align=center;dashed=0;aspect=fixed;shape=mxgraph.pid2inst.discInst;mounting=field" parent="qlSjrMp9siIo2HYoJRVr-30" vertex="1">
          <mxGeometry x="427.96" y="365" width="38.87" height="38.87" as="geometry" />
        </mxCell>
        <mxCell id="L7zxtCX0zksGG6J7b8uJ-23" value="&lt;table cellpadding=&quot;4&quot; cellspacing=&quot;0&quot; border=&quot;0&quot; style=&quot;font-size:1em;width:100%;height:100%;&quot;&gt;&lt;tbody&gt;&lt;tr&gt;&lt;td&gt;CS&lt;/td&gt;&lt;/tr&gt;&lt;tr&gt;&lt;td&gt;&lt;br&gt;&lt;/td&gt;&lt;/tr&gt;&lt;/tbody&gt;&lt;/table&gt; " style="html=1;outlineConnect=0;align=center;dashed=0;aspect=fixed;shape=mxgraph.pid2inst.discInst;mounting=field" parent="qlSjrMp9siIo2HYoJRVr-30" vertex="1">
          <mxGeometry x="486" y="365.93" width="37" height="37" as="geometry" />
        </mxCell>
        <mxCell id="L7zxtCX0zksGG6J7b8uJ-25" value="" style="endArrow=none;html=1;rounded=0;" parent="qlSjrMp9siIo2HYoJRVr-30" edge="1">
          <mxGeometry width="50" height="50" relative="1" as="geometry">
            <mxPoint x="450.7317073170732" y="412.3674911660777" as="sourcePoint" />
            <mxPoint x="450.36682926829263" y="404.1201413427562" as="targetPoint" />
          </mxGeometry>
        </mxCell>
        <mxCell id="L7zxtCX0zksGG6J7b8uJ-26" value="" style="ellipse;whiteSpace=wrap;html=1;aspect=fixed;" parent="qlSjrMp9siIo2HYoJRVr-30" vertex="1">
          <mxGeometry x="445.36585365853654" y="420.6148409893993" width="4.0503746213932725" height="4.0503746213932725" as="geometry" />
        </mxCell>
        <mxCell id="L7zxtCX0zksGG6J7b8uJ-35" value="" style="endArrow=none;html=1;rounded=0;" parent="qlSjrMp9siIo2HYoJRVr-30" edge="1">
          <mxGeometry width="50" height="50" relative="1" as="geometry">
            <mxPoint x="450.9141463414634" y="437.1095406360424" as="sourcePoint" />
            <mxPoint x="450.7317073170732" y="437.1095406360424" as="targetPoint" />
            <Array as="points">
              <mxPoint x="450.7317073170732" y="445.35689045936397" />
            </Array>
          </mxGeometry>
        </mxCell>
        <mxCell id="L7zxtCX0zksGG6J7b8uJ-36" value="" style="endArrow=none;html=1;rounded=0;" parent="qlSjrMp9siIo2HYoJRVr-30" edge="1">
          <mxGeometry width="50" height="50" relative="1" as="geometry">
            <mxPoint x="504.390243902439" y="412.3674911660777" as="sourcePoint" />
            <mxPoint x="504.1326829268292" y="404.1201413427562" as="targetPoint" />
          </mxGeometry>
        </mxCell>
        <mxCell id="L7zxtCX0zksGG6J7b8uJ-40" value="" style="ellipse;whiteSpace=wrap;html=1;aspect=fixed;" parent="qlSjrMp9siIo2HYoJRVr-30" vertex="1">
          <mxGeometry x="499.0243902439024" y="420.6148409893993" width="4.0503746213932725" height="4.0503746213932725" as="geometry" />
        </mxCell>
        <mxCell id="L7zxtCX0zksGG6J7b8uJ-41" value="" style="endArrow=none;html=1;rounded=0;" parent="qlSjrMp9siIo2HYoJRVr-30" edge="1">
          <mxGeometry width="50" height="50" relative="1" as="geometry">
            <mxPoint x="504.5726829268293" y="437.1095406360424" as="sourcePoint" />
            <mxPoint x="504.390243902439" y="437.1095406360424" as="targetPoint" />
            <Array as="points">
              <mxPoint x="504.390243902439" y="445.35689045936397" />
            </Array>
          </mxGeometry>
        </mxCell>
        <mxCell id="L7zxtCX0zksGG6J7b8uJ-43" style="edgeStyle=orthogonalEdgeStyle;rounded=0;orthogonalLoop=1;jettySize=auto;html=1;exitX=0.5;exitY=1;exitDx=0;exitDy=0;entryX=0.887;entryY=0.041;entryDx=0;entryDy=0;entryPerimeter=0;" parent="qlSjrMp9siIo2HYoJRVr-30" source="L7zxtCX0zksGG6J7b8uJ-21" target="L7zxtCX0zksGG6J7b8uJ-1" edge="1">
          <mxGeometry relative="1" as="geometry" />
        </mxCell>
        <mxCell id="L7zxtCX0zksGG6J7b8uJ-44" value="M" style="verticalLabelPosition=middle;shadow=0;dashed=0;align=center;html=1;verticalAlign=middle;strokeWidth=1;shape=ellipse;fontSize=32;perimeter=ellipsePerimeter;" parent="qlSjrMp9siIo2HYoJRVr-30" vertex="1">
          <mxGeometry x="611.7073170731707" y="513.3975265017668" width="42.926829268292686" height="32.98939929328622" as="geometry" />
        </mxCell>
        <mxCell id="L7zxtCX0zksGG6J7b8uJ-45" value="&lt;table cellpadding=&quot;4&quot; cellspacing=&quot;0&quot; border=&quot;0&quot; style=&quot;font-size:1em;width:100%;height:100%;&quot;&gt;&lt;tbody&gt;&lt;tr&gt;&lt;td&gt;XT&lt;/td&gt;&lt;/tr&gt;&lt;tr&gt;&lt;td&gt;&lt;br&gt;&lt;/td&gt;&lt;/tr&gt;&lt;/tbody&gt;&lt;/table&gt; " style="html=1;outlineConnect=0;align=center;dashed=0;aspect=fixed;shape=mxgraph.pid2inst.discInst;mounting=field" parent="qlSjrMp9siIo2HYoJRVr-30" vertex="1">
          <mxGeometry x="418.54" y="684.53" width="36.47" height="36.47" as="geometry" />
        </mxCell>
        <mxCell id="L7zxtCX0zksGG6J7b8uJ-46" value="" style="endArrow=none;dashed=1;html=1;rounded=0;entryX=0.924;entryY=0.946;entryDx=0;entryDy=0;entryPerimeter=0;" parent="qlSjrMp9siIo2HYoJRVr-30" target="L7zxtCX0zksGG6J7b8uJ-1" edge="1">
          <mxGeometry width="50" height="50" relative="1" as="geometry">
            <mxPoint x="440" y="684.530035335689" as="sourcePoint" />
            <mxPoint x="440" y="651.5406360424029" as="targetPoint" />
          </mxGeometry>
        </mxCell>
        <mxCell id="L7zxtCX0zksGG6J7b8uJ-47" value="" style="endArrow=none;dashed=1;html=1;rounded=0;" parent="qlSjrMp9siIo2HYoJRVr-30" edge="1">
          <mxGeometry width="50" height="50" relative="1" as="geometry">
            <mxPoint x="440" y="684.530035335689" as="sourcePoint" />
            <mxPoint x="440" y="651.5406360424029" as="targetPoint" />
          </mxGeometry>
        </mxCell>
        <mxCell id="L7zxtCX0zksGG6J7b8uJ-48" value="" style="endArrow=none;dashed=1;html=1;rounded=0;" parent="qlSjrMp9siIo2HYoJRVr-30" edge="1">
          <mxGeometry width="50" height="50" relative="1" as="geometry">
            <mxPoint x="525.8536585365853" y="701.024734982332" as="sourcePoint" />
            <mxPoint x="525.8536585365853" y="536.077738515901" as="targetPoint" />
          </mxGeometry>
        </mxCell>
        <mxCell id="L7zxtCX0zksGG6J7b8uJ-49" value="" style="endArrow=none;dashed=1;html=1;rounded=0;" parent="qlSjrMp9siIo2HYoJRVr-30" edge="1">
          <mxGeometry width="50" height="50" relative="1" as="geometry">
            <mxPoint x="525.8536585365853" y="536.077738515901" as="sourcePoint" />
            <mxPoint x="611.7073170731707" y="536.077738515901" as="targetPoint" />
          </mxGeometry>
        </mxCell>
        <mxCell id="L7zxtCX0zksGG6J7b8uJ-50" value="" style="endArrow=none;dashed=1;html=1;rounded=0;" parent="qlSjrMp9siIo2HYoJRVr-30" edge="1" source="L7zxtCX0zksGG6J7b8uJ-45">
          <mxGeometry width="50" height="50" relative="1" as="geometry">
            <mxPoint x="461.4634146341463" y="700.7443250883392" as="sourcePoint" />
            <mxPoint x="525.8536585365853" y="701.024734982332" as="targetPoint" />
          </mxGeometry>
        </mxCell>
        <mxCell id="L7zxtCX0zksGG6J7b8uJ-51" value="" style="endArrow=none;dashed=1;html=1;rounded=0;" parent="qlSjrMp9siIo2HYoJRVr-30" edge="1">
          <mxGeometry width="50" height="50" relative="1" as="geometry">
            <mxPoint x="633.170731707317" y="585.5618374558303" as="sourcePoint" />
            <mxPoint x="632.6341463414634" y="546.386925795053" as="targetPoint" />
          </mxGeometry>
        </mxCell>
        <mxCell id="L7zxtCX0zksGG6J7b8uJ-52" value="Subensambles manuales" style="rounded=0;whiteSpace=wrap;html=1;" parent="qlSjrMp9siIo2HYoJRVr-30" vertex="1">
          <mxGeometry x="804.8780487804877" y="497.9337455830389" width="332.68292682926824" height="148.452296819788" as="geometry" />
        </mxCell>
        <mxCell id="L7zxtCX0zksGG6J7b8uJ-55" value="" style="verticalLabelPosition=bottom;outlineConnect=0;align=center;dashed=0;html=1;verticalAlign=top;shape=mxgraph.pid2misc.conveyor" parent="qlSjrMp9siIo2HYoJRVr-30" vertex="1">
          <mxGeometry x="568.780487804878" y="592.7782685512367" width="171.70731707317074" height="28.86572438162544" as="geometry" />
        </mxCell>
        <mxCell id="8FaWMVP6NxYhzRmb6VR_-2" value="" style="verticalLabelPosition=bottom;outlineConnect=0;align=center;dashed=0;html=1;verticalAlign=top;shape=mxgraph.pid2misc.conveyor;rotation=-90;" parent="qlSjrMp9siIo2HYoJRVr-30" vertex="1">
          <mxGeometry x="1268.4878048780488" y="824.7349823321554" width="167.41463414634148" height="28.86572438162544" as="geometry" />
        </mxCell>
        <mxCell id="8FaWMVP6NxYhzRmb6VR_-3" value="" style="verticalLabelPosition=bottom;outlineConnect=0;align=center;dashed=0;html=1;verticalAlign=top;shape=mxgraph.pid2misc.conveyor;rotation=-90;" parent="qlSjrMp9siIo2HYoJRVr-30" vertex="1">
          <mxGeometry x="1373.658536585366" y="824.7349823321554" width="167.41463414634148" height="28.86572438162544" as="geometry" />
        </mxCell>
        <mxCell id="8FaWMVP6NxYhzRmb6VR_-4" value="" style="verticalLabelPosition=bottom;outlineConnect=0;align=center;dashed=0;html=1;verticalAlign=top;shape=mxgraph.pid2misc.conveyor;rotation=-90;" parent="qlSjrMp9siIo2HYoJRVr-30" vertex="1">
          <mxGeometry x="1268.4878048780488" y="973.1872791519435" width="167.41463414634148" height="28.86572438162544" as="geometry" />
        </mxCell>
        <mxCell id="8FaWMVP6NxYhzRmb6VR_-7" value="" style="endArrow=none;html=1;rounded=0;" parent="qlSjrMp9siIo2HYoJRVr-30" edge="1">
          <mxGeometry width="50" height="50" relative="1" as="geometry">
            <mxPoint x="1231.4634146341464" y="775.2508833922261" as="sourcePoint" />
            <mxPoint x="1231.4634146341464" y="750.5088339222615" as="targetPoint" />
          </mxGeometry>
        </mxCell>
        <mxCell id="8FaWMVP6NxYhzRmb6VR_-9" value="" style="endArrow=none;html=1;rounded=0;" parent="qlSjrMp9siIo2HYoJRVr-30" edge="1">
          <mxGeometry width="50" height="50" relative="1" as="geometry">
            <mxPoint x="1351.9375609756098" y="775.2508833922261" as="sourcePoint" />
            <mxPoint x="1351.9375609756098" y="750.5088339222615" as="targetPoint" />
          </mxGeometry>
        </mxCell>
        <mxCell id="8FaWMVP6NxYhzRmb6VR_-10" value="" style="endArrow=none;html=1;rounded=0;" parent="qlSjrMp9siIo2HYoJRVr-30" edge="1">
          <mxGeometry width="50" height="50" relative="1" as="geometry">
            <mxPoint x="1457.1082926829267" y="775.2508833922261" as="sourcePoint" />
            <mxPoint x="1457.1082926829267" y="750.5088339222615" as="targetPoint" />
          </mxGeometry>
        </mxCell>
        <mxCell id="8FaWMVP6NxYhzRmb6VR_-12" value="" style="endArrow=none;html=1;rounded=0;" parent="qlSjrMp9siIo2HYoJRVr-30" source="8FaWMVP6NxYhzRmb6VR_-4" edge="1">
          <mxGeometry width="50" height="50" relative="1" as="geometry">
            <mxPoint x="1330.731707317073" y="931.9505300353356" as="sourcePoint" />
            <mxPoint x="1238.439024390244" y="898.9611307420495" as="targetPoint" />
          </mxGeometry>
        </mxCell>
        <mxCell id="8FaWMVP6NxYhzRmb6VR_-13" value="" style="endArrow=none;html=1;rounded=0;" parent="qlSjrMp9siIo2HYoJRVr-30" target="8FaWMVP6NxYhzRmb6VR_-2" edge="1">
          <mxGeometry width="50" height="50" relative="1" as="geometry">
            <mxPoint x="1351.7443902439024" y="923.7031802120141" as="sourcePoint" />
            <mxPoint x="1352.1951219512193" y="907.208480565371" as="targetPoint" />
          </mxGeometry>
        </mxCell>
        <mxCell id="8FaWMVP6NxYhzRmb6VR_-14" value="" style="endArrow=none;html=1;rounded=0;" parent="qlSjrMp9siIo2HYoJRVr-30" source="8FaWMVP6NxYhzRmb6VR_-4" target="8FaWMVP6NxYhzRmb6VR_-3" edge="1">
          <mxGeometry width="50" height="50" relative="1" as="geometry">
            <mxPoint x="1373.658536585366" y="931.9505300353356" as="sourcePoint" />
            <mxPoint x="1459.5121951219512" y="907.208480565371" as="targetPoint" />
          </mxGeometry>
        </mxCell>
        <mxCell id="8FaWMVP6NxYhzRmb6VR_-15" value="M" style="verticalLabelPosition=middle;shadow=0;dashed=0;align=center;html=1;verticalAlign=middle;strokeWidth=1;shape=ellipse;fontSize=32;perimeter=ellipsePerimeter;" parent="qlSjrMp9siIo2HYoJRVr-30" vertex="1">
          <mxGeometry x="1116.0975609756094" y="799.9929328621909" width="42.926829268292686" height="32.98939929328622" as="geometry" />
        </mxCell>
        <mxCell id="8FaWMVP6NxYhzRmb6VR_-16" value="M" style="verticalLabelPosition=middle;shadow=0;dashed=0;align=center;html=1;verticalAlign=middle;strokeWidth=1;shape=ellipse;fontSize=32;perimeter=ellipsePerimeter;" parent="qlSjrMp9siIo2HYoJRVr-30" vertex="1">
          <mxGeometry x="1541.073170731707" y="808.2402826855124" width="42.926829268292686" height="32.98939929328622" as="geometry" />
        </mxCell>
        <mxCell id="8FaWMVP6NxYhzRmb6VR_-17" value="" style="endArrow=none;dashed=1;html=1;rounded=0;" parent="qlSjrMp9siIo2HYoJRVr-30" edge="1">
          <mxGeometry width="50" height="50" relative="1" as="geometry">
            <mxPoint x="1216.9756097560974" y="823.9679787985865" as="sourcePoint" />
            <mxPoint x="1159.0243902439024" y="823.5556113074205" as="targetPoint" />
          </mxGeometry>
        </mxCell>
        <mxCell id="8FaWMVP6NxYhzRmb6VR_-19" value="" style="endArrow=none;dashed=1;html=1;rounded=0;" parent="qlSjrMp9siIo2HYoJRVr-30" edge="1">
          <mxGeometry width="50" height="50" relative="1" as="geometry">
            <mxPoint x="1534.6341463414635" y="823.9679787985865" as="sourcePoint" />
            <mxPoint x="1476.6829268292684" y="823.5556113074205" as="targetPoint" />
          </mxGeometry>
        </mxCell>
        <mxCell id="8FaWMVP6NxYhzRmb6VR_-21" value="M" style="verticalLabelPosition=middle;shadow=0;dashed=0;align=center;html=1;verticalAlign=middle;strokeWidth=1;shape=ellipse;fontSize=32;perimeter=ellipsePerimeter;" parent="qlSjrMp9siIo2HYoJRVr-30" vertex="1">
          <mxGeometry x="1392.9756097560976" y="820.6113074204947" width="34.341463414634156" height="28.86572438162544" as="geometry" />
        </mxCell>
        <mxCell id="8FaWMVP6NxYhzRmb6VR_-22" value="" style="endArrow=none;dashed=1;html=1;rounded=0;" parent="qlSjrMp9siIo2HYoJRVr-30" edge="1">
          <mxGeometry width="50" height="50" relative="1" as="geometry">
            <mxPoint x="1392.9756097560976" y="837.3121908127208" as="sourcePoint" />
            <mxPoint x="1373.658536585366" y="837.1060070671379" as="targetPoint" />
          </mxGeometry>
        </mxCell>
        <mxCell id="8FaWMVP6NxYhzRmb6VR_-23" value="M" style="verticalLabelPosition=middle;shadow=0;dashed=0;align=center;html=1;verticalAlign=middle;strokeWidth=1;shape=ellipse;fontSize=32;perimeter=ellipsePerimeter;" parent="qlSjrMp9siIo2HYoJRVr-30" vertex="1">
          <mxGeometry x="1234.1463414634145" y="973.1872791519435" width="42.926829268292686" height="32.98939929328622" as="geometry" />
        </mxCell>
        <mxCell id="8FaWMVP6NxYhzRmb6VR_-24" value="" style="endArrow=none;dashed=1;html=1;rounded=0;" parent="qlSjrMp9siIo2HYoJRVr-30" edge="1">
          <mxGeometry width="50" height="50" relative="1" as="geometry">
            <mxPoint x="1335.0243902439022" y="997.1623250883392" as="sourcePoint" />
            <mxPoint x="1277.0731707317075" y="996.749957597173" as="targetPoint" />
          </mxGeometry>
        </mxCell>
        <mxCell id="8FaWMVP6NxYhzRmb6VR_-27" value="&lt;table cellpadding=&quot;4&quot; cellspacing=&quot;0&quot; border=&quot;0&quot; style=&quot;font-size:1em;width:100%;height:100%;&quot;&gt;&lt;tbody&gt;&lt;tr&gt;&lt;td&gt;XT&lt;/td&gt;&lt;/tr&gt;&lt;tr&gt;&lt;td&gt;&lt;br&gt;&lt;/td&gt;&lt;/tr&gt;&lt;/tbody&gt;&lt;/table&gt; " style="html=1;outlineConnect=0;align=center;dashed=0;aspect=fixed;shape=mxgraph.pid2inst.discInst;mounting=field" parent="qlSjrMp9siIo2HYoJRVr-30" vertex="1">
          <mxGeometry x="1405.85" y="1002.05" width="36.15" height="36.15" as="geometry" />
        </mxCell>
        <mxCell id="8FaWMVP6NxYhzRmb6VR_-28" value="" style="endArrow=none;dashed=1;html=1;rounded=0;" parent="qlSjrMp9siIo2HYoJRVr-30" edge="1">
          <mxGeometry width="50" height="50" relative="1" as="geometry">
            <mxPoint x="1405.8536585365853" y="1018.572445229682" as="sourcePoint" />
            <mxPoint x="1362.9268292682927" y="1018.3662614840989" as="targetPoint" />
          </mxGeometry>
        </mxCell>
        <mxCell id="8FaWMVP6NxYhzRmb6VR_-29" value="Paletizado" style="rounded=0;whiteSpace=wrap;html=1;" parent="qlSjrMp9siIo2HYoJRVr-30" vertex="1">
          <mxGeometry x="837.0731707317073" y="1072.155477031802" width="236.09756097560975" height="94.84452296819786" as="geometry" />
        </mxCell>
        <mxCell id="8FaWMVP6NxYhzRmb6VR_-31" value="&lt;table cellpadding=&quot;4&quot; cellspacing=&quot;0&quot; border=&quot;0&quot; style=&quot;font-size:1em;width:100%;height:100%;&quot;&gt;&lt;tbody&gt;&lt;tr&gt;&lt;td&gt;XT&lt;/td&gt;&lt;/tr&gt;&lt;tr&gt;&lt;td&gt;&lt;br&gt;&lt;/td&gt;&lt;/tr&gt;&lt;/tbody&gt;&lt;/table&gt; " style="html=1;outlineConnect=0;align=center;dashed=0;aspect=fixed;shape=mxgraph.pid2inst.discInst;mounting=field" parent="qlSjrMp9siIo2HYoJRVr-30" vertex="1">
          <mxGeometry x="1513.17" y="869" width="36.9" height="36.9" as="geometry" />
        </mxCell>
        <mxCell id="8FaWMVP6NxYhzRmb6VR_-32" value="" style="endArrow=none;dashed=1;html=1;rounded=0;" parent="qlSjrMp9siIo2HYoJRVr-30" edge="1">
          <mxGeometry width="50" height="50" relative="1" as="geometry">
            <mxPoint x="1513.170731707317" y="886.6148480565372" as="sourcePoint" />
            <mxPoint x="1470.2439024390244" y="886.408664310954" as="targetPoint" />
          </mxGeometry>
        </mxCell>
        <mxCell id="8FaWMVP6NxYhzRmb6VR_-33" value="&lt;table cellpadding=&quot;4&quot; cellspacing=&quot;0&quot; border=&quot;0&quot; style=&quot;font-size:1em;width:100%;height:100%;&quot;&gt;&lt;tbody&gt;&lt;tr&gt;&lt;td&gt;XT&lt;/td&gt;&lt;/tr&gt;&lt;tr&gt;&lt;td&gt;&lt;br&gt;&lt;/td&gt;&lt;/tr&gt;&lt;/tbody&gt;&lt;/table&gt; " style="html=1;outlineConnect=0;align=center;dashed=0;aspect=fixed;shape=mxgraph.pid2inst.discInst;mounting=field" parent="qlSjrMp9siIo2HYoJRVr-30" vertex="1">
          <mxGeometry x="1126.83" y="853.6" width="36.17" height="36.17" as="geometry" />
        </mxCell>
        <mxCell id="8FaWMVP6NxYhzRmb6VR_-34" value="" style="endArrow=none;dashed=1;html=1;rounded=0;" parent="qlSjrMp9siIo2HYoJRVr-30" edge="1">
          <mxGeometry width="50" height="50" relative="1" as="geometry">
            <mxPoint x="1212.682926829268" y="870.301590106007" as="sourcePoint" />
            <mxPoint x="1169.7560975609756" y="870.0954063604239" as="targetPoint" />
          </mxGeometry>
        </mxCell>
        <mxCell id="8FaWMVP6NxYhzRmb6VR_-35" value="&lt;table cellpadding=&quot;4&quot; cellspacing=&quot;0&quot; border=&quot;0&quot; style=&quot;font-size:1em;width:100%;height:100%;&quot;&gt;&lt;tbody&gt;&lt;tr&gt;&lt;td&gt;XT&lt;/td&gt;&lt;/tr&gt;&lt;tr&gt;&lt;td&gt;&lt;br&gt;&lt;/td&gt;&lt;/tr&gt;&lt;/tbody&gt;&lt;/table&gt; " style="html=1;outlineConnect=0;align=center;dashed=0;aspect=fixed;shape=mxgraph.pid2inst.discInst;mounting=field" parent="qlSjrMp9siIo2HYoJRVr-30" vertex="1">
          <mxGeometry x="1272" y="851.9300000000001" width="39.51" height="39.51" as="geometry" />
        </mxCell>
        <mxCell id="8FaWMVP6NxYhzRmb6VR_-36" value="" style="endArrow=none;dashed=1;html=1;rounded=0;" parent="qlSjrMp9siIo2HYoJRVr-30" edge="1">
          <mxGeometry width="50" height="50" relative="1" as="geometry">
            <mxPoint x="1330.731707317073" y="871.7448763250884" as="sourcePoint" />
            <mxPoint x="1306.0487804878048" y="871.761371024735" as="targetPoint" />
          </mxGeometry>
        </mxCell>
        <mxCell id="8FaWMVP6NxYhzRmb6VR_-37" value="M" style="verticalLabelPosition=middle;shadow=0;dashed=0;align=center;html=1;verticalAlign=middle;strokeWidth=1;shape=ellipse;fontSize=32;perimeter=ellipsePerimeter;" parent="qlSjrMp9siIo2HYoJRVr-30" vertex="1">
          <mxGeometry x="901.4634146341464" y="964.9399293286219" width="75.1219512195122" height="57.73144876325088" as="geometry" />
        </mxCell>
        <mxCell id="8FaWMVP6NxYhzRmb6VR_-38" value="&lt;table cellpadding=&quot;4&quot; cellspacing=&quot;0&quot; border=&quot;0&quot; style=&quot;font-size:1em;width:100%;height:100%;&quot;&gt;&lt;tbody&gt;&lt;tr&gt;&lt;td&gt;XT&lt;/td&gt;&lt;/tr&gt;&lt;tr&gt;&lt;td&gt;&lt;br&gt;&lt;/td&gt;&lt;/tr&gt;&lt;/tbody&gt;&lt;/table&gt; " style="html=1;outlineConnect=0;align=center;dashed=0;aspect=fixed;shape=mxgraph.pid2inst.discInst;mounting=field" parent="qlSjrMp9siIo2HYoJRVr-30" vertex="1">
          <mxGeometry x="890.73" y="898.96" width="36.27" height="36.27" as="geometry" />
        </mxCell>
        <mxCell id="8FaWMVP6NxYhzRmb6VR_-39" value="&lt;table cellpadding=&quot;4&quot; cellspacing=&quot;0&quot; border=&quot;0&quot; style=&quot;font-size:1em;width:100%;height:100%;&quot;&gt;&lt;tbody&gt;&lt;tr&gt;&lt;td&gt;CS&lt;/td&gt;&lt;/tr&gt;&lt;tr&gt;&lt;td&gt;&lt;br&gt;&lt;/td&gt;&lt;/tr&gt;&lt;/tbody&gt;&lt;/table&gt; " style="html=1;outlineConnect=0;align=center;dashed=0;aspect=fixed;shape=mxgraph.pid2inst.discInst;mounting=field" parent="qlSjrMp9siIo2HYoJRVr-30" vertex="1">
          <mxGeometry x="944.39" y="898.96" width="35.61" height="35.61" as="geometry" />
        </mxCell>
        <mxCell id="8FaWMVP6NxYhzRmb6VR_-40" value="" style="endArrow=none;html=1;rounded=0;" parent="qlSjrMp9siIo2HYoJRVr-30" edge="1">
          <mxGeometry width="50" height="50" relative="1" as="geometry">
            <mxPoint x="912.1951219512194" y="940.1978798586572" as="sourcePoint" />
            <mxPoint x="911.8302439024391" y="931.9505300353356" as="targetPoint" />
          </mxGeometry>
        </mxCell>
        <mxCell id="8FaWMVP6NxYhzRmb6VR_-41" value="" style="ellipse;whiteSpace=wrap;html=1;aspect=fixed;" parent="qlSjrMp9siIo2HYoJRVr-30" vertex="1">
          <mxGeometry x="906.829268292683" y="948.4452296819786" width="4.0503746213932725" height="4.0503746213932725" as="geometry" />
        </mxCell>
        <mxCell id="8FaWMVP6NxYhzRmb6VR_-42" value="" style="endArrow=none;html=1;rounded=0;" parent="qlSjrMp9siIo2HYoJRVr-30" edge="1">
          <mxGeometry width="50" height="50" relative="1" as="geometry">
            <mxPoint x="912.3775609756099" y="964.9399293286219" as="sourcePoint" />
            <mxPoint x="912.1951219512194" y="964.9399293286219" as="targetPoint" />
            <Array as="points">
              <mxPoint x="912.1951219512194" y="973.1872791519435" />
            </Array>
          </mxGeometry>
        </mxCell>
        <mxCell id="8FaWMVP6NxYhzRmb6VR_-43" value="" style="endArrow=none;html=1;rounded=0;" parent="qlSjrMp9siIo2HYoJRVr-30" edge="1">
          <mxGeometry width="50" height="50" relative="1" as="geometry">
            <mxPoint x="965.8536585365854" y="940.1978798586572" as="sourcePoint" />
            <mxPoint x="965.5960975609755" y="931.9505300353356" as="targetPoint" />
          </mxGeometry>
        </mxCell>
        <mxCell id="8FaWMVP6NxYhzRmb6VR_-44" value="" style="ellipse;whiteSpace=wrap;html=1;aspect=fixed;" parent="qlSjrMp9siIo2HYoJRVr-30" vertex="1">
          <mxGeometry x="960.4878048780488" y="948.4452296819786" width="4.0503746213932725" height="4.0503746213932725" as="geometry" />
        </mxCell>
        <mxCell id="8FaWMVP6NxYhzRmb6VR_-45" value="" style="endArrow=none;html=1;rounded=0;" parent="qlSjrMp9siIo2HYoJRVr-30" edge="1">
          <mxGeometry width="50" height="50" relative="1" as="geometry">
            <mxPoint x="966.0360975609756" y="964.9399293286219" as="sourcePoint" />
            <mxPoint x="965.8536585365854" y="964.9399293286219" as="targetPoint" />
            <Array as="points">
              <mxPoint x="965.8536585365854" y="973.1872791519435" />
            </Array>
          </mxGeometry>
        </mxCell>
        <mxCell id="8FaWMVP6NxYhzRmb6VR_-46" value="" style="endArrow=none;dashed=1;html=1;rounded=0;" parent="qlSjrMp9siIo2HYoJRVr-30" edge="1">
          <mxGeometry width="50" height="50" relative="1" as="geometry">
            <mxPoint x="944.390243902439" y="1072.155477031802" as="sourcePoint" />
            <mxPoint x="944.390243902439" y="1022.6713780918727" as="targetPoint" />
          </mxGeometry>
        </mxCell>
        <mxCell id="8FaWMVP6NxYhzRmb6VR_-47" value="" style="endArrow=none;html=1;rounded=0;" parent="qlSjrMp9siIo2HYoJRVr-30" edge="1">
          <mxGeometry width="50" height="50" relative="1" as="geometry">
            <mxPoint x="1073.1707317073171" y="1129.8869257950532" as="sourcePoint" />
            <mxPoint x="1352.1951219512193" y="1055.660777385159" as="targetPoint" />
          </mxGeometry>
        </mxCell>
        <mxCell id="8FaWMVP6NxYhzRmb6VR_-49" value="" style="endArrow=none;html=1;rounded=0;" parent="qlSjrMp9siIo2HYoJRVr-30" edge="1">
          <mxGeometry width="50" height="50" relative="1" as="geometry">
            <mxPoint x="568.780487804878" y="1119.1818657243816" as="sourcePoint" />
            <mxPoint x="837.0731707317073" y="1119.1818657243816" as="targetPoint" />
          </mxGeometry>
        </mxCell>
        <mxCell id="8FaWMVP6NxYhzRmb6VR_-50" style="edgeStyle=orthogonalEdgeStyle;rounded=0;orthogonalLoop=1;jettySize=auto;html=1;entryX=0.003;entryY=0.588;entryDx=0;entryDy=0;entryPerimeter=0;" parent="qlSjrMp9siIo2HYoJRVr-30" source="L7zxtCX0zksGG6J7b8uJ-55" target="L7zxtCX0zksGG6J7b8uJ-52" edge="1">
          <mxGeometry relative="1" as="geometry" />
        </mxCell>
        <mxCell id="8FaWMVP6NxYhzRmb6VR_-52" value="" style="shape=mxgraph.signs.transportation.bus_4;html=1;pointerEvents=1;fillColor=#000000;strokeColor=none;verticalLabelPosition=bottom;verticalAlign=top;align=center;" parent="qlSjrMp9siIo2HYoJRVr-30" vertex="1">
          <mxGeometry x="482.9268292682927" y="1072.155477031802" width="86.92682926829266" height="82.47349823321555" as="geometry" />
        </mxCell>
        <mxCell id="qlSjrMp9siIo2HYoJRVr-1" value="" style="group" vertex="1" connectable="0" parent="qlSjrMp9siIo2HYoJRVr-30">
          <mxGeometry x="1234.1463414634145" y="115.46289752650176" width="262.92682926829264" height="336.4918727915194" as="geometry" />
        </mxCell>
        <mxCell id="L7zxtCX0zksGG6J7b8uJ-53" value="Ensambladora" style="rounded=0;whiteSpace=wrap;html=1;" parent="qlSjrMp9siIo2HYoJRVr-1" vertex="1">
          <mxGeometry x="48.29268292682927" y="170.51395759717315" width="128.78048780487802" height="140.20494699646645" as="geometry" />
        </mxCell>
        <mxCell id="L7zxtCX0zksGG6J7b8uJ-54" value="&lt;table cellpadding=&quot;4&quot; cellspacing=&quot;0&quot; border=&quot;0&quot; style=&quot;font-size:1em;width:100%;height:100%;&quot;&gt;&lt;tbody&gt;&lt;tr&gt;&lt;td&gt;LS&lt;/td&gt;&lt;/tr&gt;&lt;tr&gt;&lt;td&gt;&lt;br&gt;&lt;/td&gt;&lt;/tr&gt;&lt;/tbody&gt;&lt;/table&gt; " style="html=1;outlineConnect=0;align=center;dashed=0;aspect=fixed;shape=mxgraph.pid2inst.discInst;mounting=field" parent="qlSjrMp9siIo2HYoJRVr-1" vertex="1">
          <mxGeometry x="220" y="245.77" width="41" height="41" as="geometry" />
        </mxCell>
        <mxCell id="L7zxtCX0zksGG6J7b8uJ-56" value="M" style="verticalLabelPosition=middle;shadow=0;dashed=0;align=center;html=1;verticalAlign=middle;strokeWidth=1;shape=ellipse;fontSize=32;perimeter=ellipsePerimeter;" parent="qlSjrMp9siIo2HYoJRVr-1" vertex="1">
          <mxGeometry x="196.390243902439" y="56.08197879858656" width="42.926829268292686" height="32.98939929328622" as="geometry" />
        </mxCell>
        <mxCell id="L7zxtCX0zksGG6J7b8uJ-57" value="" style="endArrow=none;dashed=1;html=1;rounded=0;" parent="qlSjrMp9siIo2HYoJRVr-1" edge="1">
          <mxGeometry width="50" height="50" relative="1" as="geometry">
            <mxPoint x="192.09756097560972" y="71.80967491166076" as="sourcePoint" />
            <mxPoint x="134.14634146341464" y="71.3973074204947" as="targetPoint" />
          </mxGeometry>
        </mxCell>
        <mxCell id="L7zxtCX0zksGG6J7b8uJ-58" value="&lt;table cellpadding=&quot;4&quot; cellspacing=&quot;0&quot; border=&quot;0&quot; style=&quot;font-size:1em;width:100%;height:100%;&quot;&gt;&lt;tbody&gt;&lt;tr&gt;&lt;td&gt;XT&lt;/td&gt;&lt;/tr&gt;&lt;tr&gt;&lt;td&gt;&lt;br&gt;&lt;/td&gt;&lt;/tr&gt;&lt;/tbody&gt;&lt;/table&gt; " style="html=1;outlineConnect=0;align=center;dashed=0;aspect=fixed;shape=mxgraph.pid2inst.discInst;mounting=field" parent="qlSjrMp9siIo2HYoJRVr-1" vertex="1">
          <mxGeometry x="220" y="188.04" width="38" height="38" as="geometry" />
        </mxCell>
        <mxCell id="L7zxtCX0zksGG6J7b8uJ-59" value="" style="endArrow=none;dashed=1;html=1;rounded=0;" parent="qlSjrMp9siIo2HYoJRVr-1" edge="1">
          <mxGeometry width="50" height="50" relative="1" as="geometry">
            <mxPoint x="220" y="261.9193356890459" as="sourcePoint" />
            <mxPoint x="177.07317073170728" y="261.7131519434629" as="targetPoint" />
          </mxGeometry>
        </mxCell>
        <mxCell id="L7zxtCX0zksGG6J7b8uJ-60" value="" style="endArrow=none;dashed=1;html=1;rounded=0;" parent="qlSjrMp9siIo2HYoJRVr-1" edge="1">
          <mxGeometry width="50" height="50" relative="1" as="geometry">
            <mxPoint x="220" y="204.5590176678445" as="sourcePoint" />
            <mxPoint x="177.07317073170728" y="204.35283392226148" as="targetPoint" />
          </mxGeometry>
        </mxCell>
        <mxCell id="8FaWMVP6NxYhzRmb6VR_-1" value="" style="verticalLabelPosition=bottom;outlineConnect=0;align=center;dashed=0;html=1;verticalAlign=top;shape=mxgraph.pid2misc.conveyor;rotation=-90;" parent="qlSjrMp9siIo2HYoJRVr-1" vertex="1">
          <mxGeometry x="28.975609756097562" y="49.896466431095405" width="167.41463414634148" height="28.86572438162544" as="geometry" />
        </mxCell>
        <mxCell id="8FaWMVP6NxYhzRmb6VR_-5" value="" style="endArrow=none;html=1;rounded=0;" parent="qlSjrMp9siIo2HYoJRVr-1" target="8FaWMVP6NxYhzRmb6VR_-1" edge="1">
          <mxGeometry width="50" height="50" relative="1" as="geometry">
            <mxPoint x="112.6829268292683" y="170.51395759717315" as="sourcePoint" />
            <mxPoint x="111.92097560975606" y="132.36996466431097" as="targetPoint" />
          </mxGeometry>
        </mxCell>
        <mxCell id="qlSjrMp9siIo2HYoJRVr-28" value="" style="endArrow=none;html=1;rounded=0;entryX=0.559;entryY=0.01;entryDx=0;entryDy=0;entryPerimeter=0;" edge="1" parent="qlSjrMp9siIo2HYoJRVr-1" target="8FaWMVP6NxYhzRmb6VR_-1">
          <mxGeometry width="50" height="50" relative="1" as="geometry">
            <mxPoint x="-21.463414634146343" y="56.08197879858656" as="sourcePoint" />
            <mxPoint x="53.65853658536586" y="56.2881625441696" as="targetPoint" />
          </mxGeometry>
        </mxCell>
        <mxCell id="8FaWMVP6NxYhzRmb6VR_-6" value="" style="endArrow=none;html=1;rounded=0;" parent="qlSjrMp9siIo2HYoJRVr-30" edge="1">
          <mxGeometry width="50" height="50" relative="1" as="geometry">
            <mxPoint x="1228.780487804878" y="750.5088339222615" as="sourcePoint" />
            <mxPoint x="1459.5121951219512" y="750.5088339222615" as="targetPoint" />
          </mxGeometry>
        </mxCell>
        <mxCell id="qlSjrMp9siIo2HYoJRVr-2" value="TampografÃ­a" style="rounded=0;whiteSpace=wrap;html=1;" vertex="1" parent="qlSjrMp9siIo2HYoJRVr-30">
          <mxGeometry x="1266.341463414634" y="505.15017667844523" width="182.4390243902439" height="113.40106007067138" as="geometry" />
        </mxCell>
        <mxCell id="qlSjrMp9siIo2HYoJRVr-4" value="" style="endArrow=none;html=1;rounded=0;" edge="1" parent="qlSjrMp9siIo2HYoJRVr-30">
          <mxGeometry width="50" height="50" relative="1" as="geometry">
            <mxPoint x="1351.7658536585366" y="503.08833922261476" as="sourcePoint" />
            <mxPoint x="1351.7658536585366" y="428.8621908127208" as="targetPoint" />
          </mxGeometry>
        </mxCell>
        <mxCell id="qlSjrMp9siIo2HYoJRVr-18" value="&lt;table cellpadding=&quot;4&quot; cellspacing=&quot;0&quot; border=&quot;0&quot; style=&quot;font-size:1em;width:100%;height:100%;&quot;&gt;&lt;tbody&gt;&lt;tr&gt;&lt;td&gt;PT&lt;/td&gt;&lt;/tr&gt;&lt;tr&gt;&lt;td&gt;&lt;br&gt;&lt;/td&gt;&lt;/tr&gt;&lt;/tbody&gt;&lt;/table&gt; " style="html=1;outlineConnect=0;align=center;dashed=0;aspect=fixed;shape=mxgraph.pid2inst.discInst;mounting=field" vertex="1" parent="qlSjrMp9siIo2HYoJRVr-30">
          <mxGeometry x="1513.17" y="519.58" width="36.83" height="36.83" as="geometry" />
        </mxCell>
        <mxCell id="qlSjrMp9siIo2HYoJRVr-19" value="&lt;table cellpadding=&quot;4&quot; cellspacing=&quot;0&quot; border=&quot;0&quot; style=&quot;font-size:1em;width:100%;height:100%;&quot;&gt;&lt;tbody&gt;&lt;tr&gt;&lt;td&gt;TT&lt;/td&gt;&lt;/tr&gt;&lt;tr&gt;&lt;td&gt;&lt;br&gt;&lt;/td&gt;&lt;/tr&gt;&lt;/tbody&gt;&lt;/table&gt; " style="html=1;outlineConnect=0;align=center;dashed=0;aspect=fixed;shape=mxgraph.pid2inst.discInst;mounting=field" vertex="1" parent="qlSjrMp9siIo2HYoJRVr-30">
          <mxGeometry x="1513.17" y="569.07" width="39.93" height="39.93" as="geometry" />
        </mxCell>
        <mxCell id="qlSjrMp9siIo2HYoJRVr-21" value="" style="endArrow=none;dashed=1;html=1;rounded=0;" edge="1" parent="qlSjrMp9siIo2HYoJRVr-30" source="qlSjrMp9siIo2HYoJRVr-18">
          <mxGeometry width="50" height="50" relative="1" as="geometry">
            <mxPoint x="1491.7073170731705" y="536.1519646643109" as="sourcePoint" />
            <mxPoint x="1448.7804878048782" y="535.9457809187279" as="targetPoint" />
          </mxGeometry>
        </mxCell>
        <mxCell id="qlSjrMp9siIo2HYoJRVr-22" value="" style="endArrow=none;dashed=1;html=1;rounded=0;exitX=0;exitY=0.5;exitDx=0;exitDy=0;" edge="1" parent="qlSjrMp9siIo2HYoJRVr-30" source="qlSjrMp9siIo2HYoJRVr-19">
          <mxGeometry width="50" height="50" relative="1" as="geometry">
            <mxPoint x="1491.7073170731705" y="585.6360636042402" as="sourcePoint" />
            <mxPoint x="1448.7804878048782" y="585.4298798586572" as="targetPoint" />
          </mxGeometry>
        </mxCell>
        <mxCell id="qlSjrMp9siIo2HYoJRVr-23" value="" style="endArrow=none;html=1;rounded=0;" edge="1" parent="qlSjrMp9siIo2HYoJRVr-30">
          <mxGeometry width="50" height="50" relative="1" as="geometry">
            <mxPoint x="1352.1951219512193" y="750.5088339222615" as="sourcePoint" />
            <mxPoint x="1351.68" y="618.5512367491166" as="targetPoint" />
          </mxGeometry>
        </mxCell>
        <mxCell id="qlSjrMp9siIo2HYoJRVr-25" value="" style="endArrow=none;html=1;rounded=0;" edge="1" parent="qlSjrMp9siIo2HYoJRVr-30">
          <mxGeometry width="50" height="50" relative="1" as="geometry">
            <mxPoint x="1212.682926829268" y="569.0671378091873" as="sourcePoint" />
            <mxPoint x="1212.682926829268" y="173.19434628975264" as="targetPoint" />
          </mxGeometry>
        </mxCell>
        <mxCell id="qlSjrMp9siIo2HYoJRVr-26" value="" style="endArrow=none;html=1;rounded=0;" edge="1" parent="qlSjrMp9siIo2HYoJRVr-30">
          <mxGeometry width="50" height="50" relative="1" as="geometry">
            <mxPoint x="1137.560975609756" y="568.0362190812721" as="sourcePoint" />
            <mxPoint x="1212.682926829268" y="568.2424028268551" as="targetPoint" />
          </mxGeometry>
        </mxCell>
        <mxCell id="qlSjrMp9siIo2HYoJRVr-32" value="&lt;b style=&quot;font-size: 36px;&quot;&gt;DIAGRAMA P&amp;amp;ID DE PROCESO DE FABRICACIÃN DE JUGUETES AUSOL&lt;/b&gt;" style="text;html=1;align=center;verticalAlign=middle;resizable=0;points=[];autosize=1;strokeColor=none;fillColor=none;" vertex="1" parent="qlSjrMp9siIo2HYoJRVr-30">
          <mxGeometry x="141" y="15" width="1279" height="55" as="geometry" />
        </mxCell>
      </root>
    </mxGraphModel>
  </diagram>
</mxfile>
